<svg width="301" height="300" viewBox="0 0 301 300" fill="none" xmlns="http://www.w3.org/2000/svg">
<path d="M262.195 236.102H294.341" stroke="#263238" stroke-width="0.108349" stroke-linecap="round" stroke-linejoin="round"/>
<path d="M15.6934 236.102H35.0276" stroke="#263238" stroke-width="0.108349" stroke-linecap="round" stroke-linejoin="round"/>
<path opacity="0.2" d="M89.0292 138.809H66.9492V147.748H89.0292V138.809Z" fill="#184F81"/>
<path opacity="0.2" d="M165.338 114.246H143.258V123.185H165.338V114.246Z" fill="#184F81"/>
<path opacity="0.2" d="M233.764 114.246H211.684V123.185H233.764V114.246Z" fill="#184F81"/>
<path opacity="0.2" d="M273.236 130.914H251.156V139.853H273.236V130.914Z" fill="#184F81"/>
<path opacity="0.1" d="M153.246 126.594H131.166V135.533H153.246V126.594Z" fill="#184F81"/>
<path opacity="0.2" d="M114.928 114.246H92.8477V123.185H114.928V114.246Z" fill="#184F81"/>
<path opacity="0.1" d="M102.834 126.594H80.7539V135.533H102.834V126.594Z" fill="#184F81"/>
<path opacity="0.1" d="M128.074 126.594H105.994V135.533H128.074V126.594Z" fill="#184F81"/>
<path opacity="0.2" d="M63.3202 147.059H41.2402V155.998H63.3202V147.059Z" fill="#184F81"/>
<path opacity="0.1" d="M52.4296 126.594H30.3496V135.533H52.4296V126.594Z" fill="#184F81"/>
<path opacity="0.1" d="M77.6678 126.594H55.5879V135.533H77.6678V126.594Z" fill="#184F81"/>
<path opacity="0.2" d="M165.338 63.8047H143.258V72.7437H165.338V63.8047Z" fill="#184F81"/>
<path opacity="0.1" d="M153.246 76.1562H131.166V85.0953H153.246V76.1562Z" fill="#184F81"/>
<path opacity="0.2" d="M276.306 63.8047H254.227V72.7437H276.306V63.8047Z" fill="#184F81"/>
<path opacity="0.1" d="M264.217 76.1562H242.137V85.0953H264.217V76.1562Z" fill="#184F81"/>
<path opacity="0.2" d="M121.068 63.8047H98.9883V72.7437H121.068V63.8047Z" fill="#184F81"/>
<path opacity="0.1" d="M128.074 101.004H105.994V109.943H128.074V101.004Z" fill="#184F81"/>
<path opacity="0.2" d="M190.959 159.863H168.879V168.802H190.959V159.863Z" fill="#184F81"/>
<path opacity="0.2" d="M190.959 183.988H168.879V192.927H190.959V183.988Z" fill="#184F81"/>
<path opacity="0.2" d="M89.0292 184.426H66.9492V193.365H89.0292V184.426Z" fill="#184F81"/>
<path opacity="0.1" d="M228.885 172.211H206.805V181.15H228.885V172.211Z" fill="#184F81"/>
<path opacity="0.1" d="M216.836 183.902H194.756V192.841H216.836V183.902Z" fill="#184F81"/>
<path opacity="0.1" d="M292.73 172.211H270.65V181.15H292.73V172.211Z" fill="#184F81"/>
<path opacity="0.1" d="M280.676 183.902H258.596V192.841H280.676V183.902Z" fill="#184F81"/>
<path opacity="0.2" d="M165.338 159.863H143.258V168.802H165.338V159.863Z" fill="#184F81"/>
<path opacity="0.1" d="M178.478 172.211H156.398V181.15H178.478V172.211Z" fill="#184F81"/>
<path opacity="0.1" d="M167.951 197.652H145.871V206.591H167.951V197.652Z" fill="#184F81"/>
<path opacity="0.1" d="M199.531 209.496H177.451V218.435H199.531V209.496Z" fill="#184F81"/>
<path opacity="0.1" d="M116.195 209.496H94.1152V218.435H116.195V209.496Z" fill="#184F81"/>
<path opacity="0.1" d="M53.2323 209.496H31.1523V218.435H53.2323V209.496Z" fill="#184F81"/>
<path opacity="0.1" d="M133.508 141.949H111.428V150.888H133.508V141.949Z" fill="#184F81"/>
<path opacity="0.1" d="M158.742 141.949H136.662V150.888H158.742V141.949Z" fill="#184F81"/>
<path opacity="0.1" d="M228.922 141.949H206.842V150.888H228.922V141.949Z" fill="#184F81"/>
<path opacity="0.2" d="M114.928 159.863H92.8477V168.802H114.928V159.863Z" fill="#184F81"/>
<path opacity="0.1" d="M139.238 185.371H117.158V194.31H139.238V185.371Z" fill="#184F81"/>
<path opacity="0.2" d="M64.5233 159.863H42.4434V168.802H64.5233V159.863Z" fill="#184F81"/>
<path opacity="0.2" d="M63.3202 192.676H41.2402V201.615H63.3202V192.676Z" fill="#184F81"/>
<path opacity="0.1" d="M52.4296 172.211H30.3496V181.15H52.4296V172.211Z" fill="#184F81"/>
<path opacity="0.1" d="M77.6678 172.211H55.5879V181.15H77.6678V172.211Z" fill="#184F81"/>
<path d="M277.016 161.215L283.235 220.849" stroke="#263238" stroke-width="0.216699" stroke-miterlimit="10"/>
<path d="M282.234 209.435L279.414 206.457" stroke="#263238" stroke-width="0.216699" stroke-miterlimit="10"/>
<path d="M280.27 207.37C280.264 206.914 280.161 206.466 279.967 206.053C279.773 205.641 279.494 205.275 279.147 204.979C278.424 204.33 274.612 202.729 274.248 204.071C273.858 205.51 277.744 208.374 280.27 207.37Z" fill="#147AA6" stroke="#263238" stroke-width="0.108349" stroke-miterlimit="10"/>
<path d="M280.272 207.349L276.645 205.09" stroke="#263238" stroke-width="0.0541747" stroke-miterlimit="10"/>
<path d="M282.941 216.216L280.121 213.238" stroke="#263238" stroke-width="0.216699" stroke-miterlimit="10"/>
<path d="M280.975 214.131C280.971 213.675 280.868 213.225 280.674 212.812C280.481 212.399 280.2 212.032 279.852 211.736C279.129 211.092 275.317 209.486 274.957 210.829C274.563 212.289 278.462 215.158 280.975 214.131Z" fill="#147AA6" stroke="#263238" stroke-width="0.108349" stroke-miterlimit="10"/>
<path d="M280.977 214.13L277.35 211.867" stroke="#263238" stroke-width="0.0541747" stroke-miterlimit="10"/>
<path d="M280.508 192.885L277.688 189.902" stroke="#263238" stroke-width="0.216699" stroke-miterlimit="10"/>
<path d="M278.542 190.795C278.537 190.339 278.434 189.889 278.241 189.476C278.047 189.063 277.767 188.696 277.419 188.401C276.695 187.756 272.884 186.15 272.524 187.493C272.129 188.944 276.028 191.822 278.542 190.795Z" fill="#147AA6" stroke="#263238" stroke-width="0.108349" stroke-miterlimit="10"/>
<path d="M278.543 190.798L274.916 188.535" stroke="#263238" stroke-width="0.0541747" stroke-miterlimit="10"/>
<path d="M281.215 199.67L278.395 196.691" stroke="#263238" stroke-width="0.216699" stroke-miterlimit="10"/>
<path d="M279.251 197.581C279.245 197.125 279.142 196.676 278.948 196.264C278.754 195.852 278.475 195.486 278.128 195.19C277.4 194.541 273.589 192.94 273.229 194.282C272.834 195.743 276.738 198.598 279.251 197.581Z" fill="#147AA6" stroke="#263238" stroke-width="0.108349" stroke-miterlimit="10"/>
<path d="M279.253 197.579L275.621 195.32" stroke="#263238" stroke-width="0.0541747" stroke-miterlimit="10"/>
<path d="M279.357 181.869L276.537 178.891" stroke="#263238" stroke-width="0.216699" stroke-miterlimit="10"/>
<path d="M277.393 179.78C277.387 179.324 277.283 178.874 277.09 178.461C276.896 178.048 276.617 177.681 276.27 177.385C275.547 176.74 271.735 175.135 271.371 176.477C270.981 177.938 274.88 180.806 277.393 179.78Z" fill="#147AA6" stroke="#263238" stroke-width="0.108349" stroke-miterlimit="10"/>
<path d="M277.393 179.782L273.766 177.523" stroke="#263238" stroke-width="0.0541747" stroke-miterlimit="10"/>
<path d="M278.204 170.802L275.379 167.824" stroke="#263238" stroke-width="0.216699" stroke-miterlimit="10"/>
<path d="M276.239 168.714C276.233 168.258 276.13 167.809 275.936 167.397C275.743 166.985 275.463 166.619 275.117 166.323C274.393 165.674 270.581 164.073 270.217 165.415C269.822 166.876 273.726 169.74 276.239 168.714Z" fill="#147AA6" stroke="#263238" stroke-width="0.108349" stroke-miterlimit="10"/>
<path d="M276.239 168.716L272.607 166.457" stroke="#263238" stroke-width="0.0541747" stroke-miterlimit="10"/>
<path d="M281.762 205.422L283.907 201.926" stroke="#263238" stroke-width="0.216699" stroke-miterlimit="10"/>
<path d="M283.253 202.983C283.164 202.535 283.172 202.074 283.275 201.63C283.379 201.186 283.576 200.77 283.853 200.408C284.432 199.627 287.827 197.272 288.459 198.509C289.148 199.851 285.919 203.461 283.253 202.983Z" fill="#147AA6" stroke="#263238" stroke-width="0.108349" stroke-miterlimit="10"/>
<path d="M283.254 202.975L286.517 199.852" stroke="#263238" stroke-width="0.0541747" stroke-miterlimit="10"/>
<path d="M279.896 187.578L282.041 184.078" stroke="#263238" stroke-width="0.216699" stroke-miterlimit="10"/>
<path d="M281.389 185.127C281.3 184.68 281.309 184.218 281.413 183.774C281.517 183.33 281.716 182.914 281.994 182.552C282.569 181.772 285.968 179.416 286.6 180.653C287.284 182 284.06 185.614 281.389 185.127Z" fill="#147AA6" stroke="#263238" stroke-width="0.108349" stroke-miterlimit="10"/>
<path d="M281.389 185.131L284.656 182.008" stroke="#263238" stroke-width="0.0541747" stroke-miterlimit="10"/>
<path d="M279.078 179.735L281.223 176.234" stroke="#263238" stroke-width="0.216699" stroke-miterlimit="10"/>
<path d="M280.571 177.283C280.482 176.836 280.49 176.375 280.595 175.93C280.699 175.486 280.897 175.07 281.176 174.709C281.751 173.928 285.15 171.573 285.781 172.809C286.466 174.156 283.242 177.766 280.571 177.283Z" fill="#147AA6" stroke="#263238" stroke-width="0.108349" stroke-miterlimit="10"/>
<path d="M280.568 177.287L283.836 174.164" stroke="#263238" stroke-width="0.0541747" stroke-miterlimit="10"/>
<path d="M277.879 168.234L280.024 164.738" stroke="#263238" stroke-width="0.216699" stroke-miterlimit="10"/>
<path d="M279.371 165.787C279.283 165.34 279.291 164.878 279.395 164.434C279.5 163.99 279.698 163.574 279.977 163.213C280.551 162.432 283.924 160.076 284.578 161.313C285.266 162.664 282.043 166.274 279.371 165.787Z" fill="#147AA6" stroke="#263238" stroke-width="0.108349" stroke-miterlimit="10"/>
<path d="M279.371 165.783L282.639 162.66" stroke="#263238" stroke-width="0.0541747" stroke-miterlimit="10"/>
<path d="M276.964 160.877C276.875 160.43 276.883 159.969 276.986 159.525C277.09 159.081 277.287 158.664 277.564 158.302C278.143 157.522 281.538 155.166 282.17 156.403C282.859 157.759 279.63 161.368 276.964 160.877Z" fill="#147AA6" stroke="#263238" stroke-width="0.108349" stroke-miterlimit="10"/>
<path d="M276.963 160.881L280.231 157.758" stroke="#263238" stroke-width="0.0541747" stroke-miterlimit="10"/>
<path d="M277.152 161.017C276.698 161.057 276.24 161 275.809 160.848C275.379 160.697 274.986 160.455 274.656 160.14C273.937 159.486 271.95 155.859 273.248 155.363C274.674 154.824 277.915 158.411 277.152 161.017Z" fill="#147AA6" stroke="#263238" stroke-width="0.108349" stroke-miterlimit="10"/>
<path d="M277.152 161.017L274.389 157.438" stroke="#263238" stroke-width="0.0541747" stroke-miterlimit="10"/>
<path d="M293.427 169.426L287.238 229.064" stroke="#263238" stroke-width="0.216699" stroke-miterlimit="10"/>
<path d="M288.61 217.691L286.461 214.195" stroke="#263238" stroke-width="0.216699" stroke-miterlimit="10"/>
<path d="M287.117 215.264C287.206 214.817 287.198 214.356 287.093 213.913C286.989 213.47 286.791 213.054 286.512 212.693C285.933 211.908 282.534 209.557 281.907 210.794C281.218 212.119 284.446 215.729 287.117 215.264Z" fill="#147AA6" stroke="#263238" stroke-width="0.108349" stroke-miterlimit="10"/>
<path d="M287.117 215.242L284.029 212.281" stroke="#263238" stroke-width="0.0541747" stroke-miterlimit="10"/>
<path d="M290.329 201.141L288.18 197.641" stroke="#263238" stroke-width="0.216699" stroke-miterlimit="10"/>
<path d="M288.833 198.695C288.922 198.248 288.913 197.786 288.809 197.342C288.705 196.898 288.506 196.482 288.228 196.12C287.653 195.34 284.254 192.984 283.622 194.226C282.938 195.572 286.166 199.182 288.833 198.695Z" fill="#147AA6" stroke="#263238" stroke-width="0.108349" stroke-miterlimit="10"/>
<path d="M288.833 198.691L285.75 195.73" stroke="#263238" stroke-width="0.0541747" stroke-miterlimit="10"/>
<path d="M289.621 207.925L287.477 204.43" stroke="#263238" stroke-width="0.216699" stroke-miterlimit="10"/>
<path d="M288.129 205.475C288.218 205.027 288.21 204.566 288.105 204.122C288.001 203.678 287.803 203.261 287.524 202.9C286.949 202.119 283.546 199.768 282.918 201.005C282.23 202.352 285.458 205.962 288.129 205.475Z" fill="#147AA6" stroke="#263238" stroke-width="0.108349" stroke-miterlimit="10"/>
<path d="M288.13 205.476L285.047 202.516" stroke="#263238" stroke-width="0.0541747" stroke-miterlimit="10"/>
<path d="M291.467 190.125L289.322 186.625" stroke="#263238" stroke-width="0.216699" stroke-miterlimit="10"/>
<path d="M289.978 187.676C290.066 187.228 290.058 186.767 289.954 186.323C289.849 185.879 289.651 185.462 289.372 185.101C288.798 184.32 285.399 181.965 284.767 183.206C284.083 184.561 287.307 188.162 289.978 187.676Z" fill="#147AA6" stroke="#263238" stroke-width="0.108349" stroke-miterlimit="10"/>
<path d="M289.976 187.676L286.893 184.715" stroke="#263238" stroke-width="0.0541747" stroke-miterlimit="10"/>
<path d="M292.618 179.059L290.469 175.559" stroke="#263238" stroke-width="0.216699" stroke-miterlimit="10"/>
<path d="M291.125 176.609C291.214 176.162 291.206 175.7 291.101 175.256C290.997 174.812 290.799 174.396 290.52 174.035C289.941 173.254 286.542 170.898 285.914 172.14C285.226 173.486 288.454 177.105 291.125 176.609Z" fill="#147AA6" stroke="#263238" stroke-width="0.108349" stroke-miterlimit="10"/>
<path d="M291.127 176.609L288.039 173.648" stroke="#263238" stroke-width="0.0541747" stroke-miterlimit="10"/>
<path d="M288.973 213.67L291.793 210.688" stroke="#263238" stroke-width="0.216699" stroke-miterlimit="10"/>
<path d="M290.934 211.577C290.94 211.121 291.043 210.672 291.237 210.26C291.43 209.848 291.71 209.482 292.056 209.186C292.78 208.537 296.592 206.932 296.951 208.274C297.346 209.734 293.447 212.603 290.934 211.577Z" fill="#147AA6" stroke="#263238" stroke-width="0.108349" stroke-miterlimit="10"/>
<path d="M290.934 211.577L294.776 209.195" stroke="#263238" stroke-width="0.0541747" stroke-miterlimit="10"/>
<path d="M290.822 195.815L293.643 192.832" stroke="#263238" stroke-width="0.216699" stroke-miterlimit="10"/>
<path d="M292.785 193.729C292.791 193.273 292.895 192.823 293.088 192.41C293.282 191.997 293.561 191.63 293.908 191.334C294.632 190.689 298.443 189.084 298.807 190.426C299.198 191.882 295.29 194.755 292.785 193.729Z" fill="#147AA6" stroke="#263238" stroke-width="0.108349" stroke-miterlimit="10"/>
<path d="M292.785 193.729L296.627 191.348" stroke="#263238" stroke-width="0.0541747" stroke-miterlimit="10"/>
<path d="M291.635 187.971L294.455 184.988" stroke="#263238" stroke-width="0.216699" stroke-miterlimit="10"/>
<path d="M293.6 185.874C293.604 185.418 293.707 184.968 293.901 184.554C294.094 184.141 294.375 183.774 294.722 183.479C295.446 182.83 299.258 181.225 299.617 182.567C300.012 184.036 296.113 186.905 293.6 185.874Z" fill="#147AA6" stroke="#263238" stroke-width="0.108349" stroke-miterlimit="10"/>
<path d="M293.6 185.886L297.442 183.5" stroke="#263238" stroke-width="0.0541747" stroke-miterlimit="10"/>
<path d="M292.83 176.475L295.646 173.492" stroke="#263238" stroke-width="0.216699" stroke-miterlimit="10"/>
<path d="M294.793 174.385C294.798 173.929 294.9 173.479 295.094 173.065C295.288 172.652 295.568 172.285 295.916 171.99C296.64 171.345 300.451 169.736 300.811 171.078C301.206 172.538 297.306 175.411 294.793 174.385Z" fill="#147AA6" stroke="#263238" stroke-width="0.108349" stroke-miterlimit="10"/>
<path d="M294.793 174.386L298.635 172.004" stroke="#263238" stroke-width="0.0541747" stroke-miterlimit="10"/>
<path d="M293.447 169.093C293.452 168.636 293.555 168.186 293.748 167.773C293.942 167.36 294.222 166.993 294.57 166.698C295.294 166.049 299.101 164.443 299.465 165.785C299.86 167.246 295.961 170.115 293.447 169.093Z" fill="#147AA6" stroke="#263238" stroke-width="0.108349" stroke-miterlimit="10"/>
<path d="M293.447 169.089L297.285 166.703" stroke="#263238" stroke-width="0.0541747" stroke-miterlimit="10"/>
<path d="M293.605 169.261C293.152 169.208 292.716 169.058 292.325 168.822C291.935 168.586 291.6 168.269 291.342 167.893C290.772 167.108 289.587 163.147 290.947 162.928C292.443 162.691 294.886 166.866 293.605 169.261Z" fill="#147AA6" stroke="#263238" stroke-width="0.108349" stroke-miterlimit="10"/>
<path d="M293.604 169.266L291.635 165.195" stroke="#263238" stroke-width="0.0541747" stroke-miterlimit="10"/>
<path d="M286.336 145.141V220.561" stroke="#263238" stroke-width="0.216699" stroke-miterlimit="10"/>
<path d="M286.398 209.22L283.902 205.961" stroke="#263238" stroke-width="0.216699" stroke-miterlimit="10"/>
<path d="M284.661 206.931C284.701 206.477 284.643 206.019 284.492 205.589C284.34 205.158 284.099 204.765 283.783 204.436C283.13 203.716 279.507 201.725 279.007 203.023C278.472 204.444 282.055 207.699 284.661 206.931Z" fill="#147AA6" stroke="#263238" stroke-width="0.108349" stroke-miterlimit="10"/>
<path d="M284.66 206.94L281.287 204.312" stroke="#263238" stroke-width="0.0541747" stroke-miterlimit="10"/>
<path d="M286.398 195.044L283.902 191.789" stroke="#263238" stroke-width="0.216699" stroke-miterlimit="10"/>
<path d="M284.661 192.762C284.701 192.307 284.643 191.849 284.492 191.419C284.34 190.988 284.099 190.595 283.783 190.266C283.13 189.546 279.507 187.56 279.007 188.853C278.472 190.261 282.055 193.525 284.661 192.762Z" fill="#147AA6" stroke="#263238" stroke-width="0.108349" stroke-miterlimit="10"/>
<path d="M284.66 192.764L281.287 190.141" stroke="#263238" stroke-width="0.0541747" stroke-miterlimit="10"/>
<path d="M286.398 178.403L283.902 175.148" stroke="#263238" stroke-width="0.216699" stroke-miterlimit="10"/>
<path d="M284.661 176.127C284.7 175.672 284.643 175.213 284.491 174.782C284.34 174.351 284.099 173.957 283.783 173.627C283.13 172.912 279.507 170.92 279.007 172.219C278.472 173.627 282.055 176.885 284.661 176.127Z" fill="#147AA6" stroke="#263238" stroke-width="0.108349" stroke-miterlimit="10"/>
<path d="M284.66 176.127L281.287 173.5" stroke="#263238" stroke-width="0.0541747" stroke-miterlimit="10"/>
<path d="M286.398 167.325L283.902 164.066" stroke="#263238" stroke-width="0.216699" stroke-miterlimit="10"/>
<path d="M284.661 165.049C284.701 164.594 284.643 164.136 284.492 163.706C284.34 163.275 284.099 162.882 283.783 162.553C283.13 161.833 279.507 159.842 279.007 161.14C278.472 162.553 282.055 165.807 284.661 165.049Z" fill="#147AA6" stroke="#263238" stroke-width="0.108349" stroke-miterlimit="10"/>
<path d="M284.66 165.045L281.287 162.422" stroke="#263238" stroke-width="0.0541747" stroke-miterlimit="10"/>
<path d="M286.398 156.2L283.902 152.945" stroke="#263238" stroke-width="0.216699" stroke-miterlimit="10"/>
<path d="M284.661 153.924C284.7 153.468 284.643 153.01 284.491 152.579C284.34 152.148 284.099 151.754 283.783 151.423C283.13 150.709 279.507 148.717 279.007 150.015C278.472 151.423 282.055 154.682 284.661 153.924Z" fill="#147AA6" stroke="#263238" stroke-width="0.108349" stroke-miterlimit="10"/>
<path d="M284.66 153.924L281.287 151.297" stroke="#263238" stroke-width="0.0541747" stroke-miterlimit="10"/>
<path d="M286.34 213.544L288.84 210.289" stroke="#263238" stroke-width="0.216699" stroke-miterlimit="10"/>
<path d="M288.079 211.268C288.039 210.813 288.096 210.354 288.248 209.923C288.399 209.492 288.64 209.098 288.956 208.768C289.609 208.048 293.237 206.062 293.732 207.36C294.268 208.768 290.684 212.027 288.079 211.268Z" fill="#147AA6" stroke="#263238" stroke-width="0.108349" stroke-miterlimit="10"/>
<path d="M288.078 211.272L291.653 208.504" stroke="#263238" stroke-width="0.0541747" stroke-miterlimit="10"/>
<path d="M286.34 191.005L288.84 187.75" stroke="#263238" stroke-width="0.216699" stroke-miterlimit="10"/>
<path d="M288.079 188.724C288.039 188.27 288.096 187.812 288.248 187.382C288.399 186.951 288.64 186.558 288.956 186.229C289.61 185.509 293.237 183.518 293.733 184.816C294.268 186.229 290.684 189.487 288.079 188.724Z" fill="#147AA6" stroke="#263238" stroke-width="0.108349" stroke-miterlimit="10"/>
<path d="M288.078 188.725L291.653 185.957" stroke="#263238" stroke-width="0.0541747" stroke-miterlimit="10"/>
<path d="M286.34 179.88L288.84 176.621" stroke="#263238" stroke-width="0.216699" stroke-miterlimit="10"/>
<path d="M288.079 177.599C288.039 177.144 288.096 176.686 288.248 176.255C288.399 175.824 288.64 175.43 288.956 175.099C289.609 174.384 293.237 172.393 293.732 173.691C294.268 175.099 290.684 178.358 288.079 177.599Z" fill="#147AA6" stroke="#263238" stroke-width="0.108349" stroke-miterlimit="10"/>
<path d="M288.078 177.604L291.653 174.836" stroke="#263238" stroke-width="0.0541747" stroke-miterlimit="10"/>
<path d="M286.34 165.177L288.84 161.918" stroke="#263238" stroke-width="0.216699" stroke-miterlimit="10"/>
<path d="M288.079 162.892C288.039 162.438 288.096 161.98 288.248 161.55C288.399 161.119 288.64 160.726 288.956 160.397C289.61 159.677 293.237 157.686 293.733 158.984C294.268 160.397 290.684 163.651 288.079 162.892Z" fill="#147AA6" stroke="#263238" stroke-width="0.108349" stroke-miterlimit="10"/>
<path d="M288.078 162.897L291.653 160.129" stroke="#263238" stroke-width="0.0541747" stroke-miterlimit="10"/>
<path d="M286.34 153.614L288.84 150.359" stroke="#263238" stroke-width="0.216699" stroke-miterlimit="10"/>
<path d="M288.079 151.33C288.039 150.875 288.096 150.417 288.248 149.987C288.399 149.557 288.64 149.164 288.956 148.834C289.61 148.115 293.237 146.123 293.733 147.422C294.268 148.834 290.684 152.102 288.079 151.33Z" fill="#147AA6" stroke="#263238" stroke-width="0.108349" stroke-miterlimit="10"/>
<path d="M288.078 151.33L291.653 148.562" stroke="#263238" stroke-width="0.0541747" stroke-miterlimit="10"/>
<path d="M286.19 146.205C286.15 145.75 286.208 145.292 286.359 144.862C286.51 144.432 286.752 144.039 287.067 143.709C287.721 142.99 291.344 140.998 291.844 142.297C292.379 143.709 288.795 146.968 286.19 146.205Z" fill="#147AA6" stroke="#263238" stroke-width="0.108349" stroke-miterlimit="10"/>
<path d="M286.191 146.205L289.766 143.438" stroke="#263238" stroke-width="0.0541747" stroke-miterlimit="10"/>
<path d="M286.368 146.358C285.913 146.352 285.464 146.249 285.052 146.055C284.639 145.862 284.273 145.582 283.978 145.235C283.329 144.507 281.732 140.695 283.074 140.336C284.535 139.945 287.395 143.849 286.368 146.358Z" fill="#147AA6" stroke="#263238" stroke-width="0.108349" stroke-miterlimit="10"/>
<path d="M286.368 146.358L283.99 142.516" stroke="#263238" stroke-width="0.0541747" stroke-miterlimit="10"/>
<path d="M289.438 240.121H281.455L280.455 219.949H290.438L289.438 240.121Z" fill="#263238" stroke="#263238" stroke-width="0.108349" stroke-miterlimit="10"/>
<path d="M40.0227 79.0196C41.7144 78.3911 42.5763 76.5102 41.9478 74.8185C41.3194 73.1268 39.4385 72.2648 37.7467 72.8933C36.055 73.5218 35.1931 75.4027 35.8216 77.0944C36.45 78.7861 38.3309 79.6481 40.0227 79.0196Z" fill="white" stroke="#263238" stroke-width="0.108349" stroke-miterlimit="10"/>
<path d="M53.4537 76.6133H24.0664L34.352 64.332H43.1681L53.4537 76.6133Z" fill="#263238"/>
<path d="M40.6996 61.957H36.8223V65.8344H40.6996V61.957Z" fill="#263238"/>
<path d="M38.918 62.6847V51.4648" stroke="#263238" stroke-width="0.108349" stroke-miterlimit="10"/>
<path d="M254.938 78.9369C256.583 78.1945 257.315 76.2592 256.573 74.6143C255.83 72.9693 253.895 72.2377 252.25 72.98C250.605 73.7224 249.873 75.6577 250.616 77.3026C251.358 78.9476 253.293 79.6792 254.938 78.9369Z" fill="white" stroke="#263238" stroke-width="0.108349" stroke-miterlimit="10"/>
<path d="M268.157 76.6133H238.77L249.055 64.332H257.871L268.157 76.6133Z" fill="#263238"/>
<path d="M255.401 61.957H251.523V65.8344H255.401V61.957Z" fill="#263238"/>
<path d="M253.621 62.6847V51.4648" stroke="#263238" stroke-width="0.108349" stroke-miterlimit="10"/>
<path d="M191.079 86.3555H79.3633V154.749H191.079V86.3555Z" fill="#263238" stroke="#263238" stroke-width="0.108349" stroke-linecap="round" stroke-linejoin="round"/>
<path d="M187.359 89.4258H83.0781V151.683H187.359V89.4258Z" fill="white" stroke="#263238" stroke-width="0.108349" stroke-linecap="round" stroke-linejoin="round"/>
<path d="M134.037 128.531H127.699V135.751H134.037V128.531Z" fill="#263238"/>
<path d="M99.1857 123.781H92.8477V135.751H99.1857V123.781Z" fill="#263238"/>
<path d="M107.895 118.84H101.557V135.749H107.895V118.84Z" fill="#147AA6"/>
<path d="M116.611 113.332H110.273V135.754H116.611V113.332Z" fill="#263238"/>
<path d="M125.322 126.441H118.984V135.753H125.322V126.441Z" fill="#147AA6"/>
<path d="M142.748 115.418H136.41V135.748H142.748V115.418Z" fill="#147AA6"/>
<path d="M151.457 111.809H145.119V135.748H151.457V111.809Z" fill="#263238"/>
<path d="M160.174 108.578H153.836V135.75H160.174V108.578Z" fill="#147AA6"/>
<path d="M168.885 118.457H162.547V135.747H168.885V118.457Z" fill="#263238"/>
<path d="M177.6 123.781H171.262V135.751H177.6V123.781Z" fill="#147AA6"/>
<path d="M120.014 98.8555H150.427" stroke="#263238" stroke-width="0.108349" stroke-linecap="round" stroke-linejoin="round"/>
<path d="M92.8574 139.734H98.8401" stroke="#263238" stroke-width="0.108349" stroke-linecap="round" stroke-linejoin="round"/>
<path d="M101.602 139.734H107.584" stroke="#263238" stroke-width="0.108349" stroke-linecap="round" stroke-linejoin="round"/>
<path d="M110.354 139.734H116.336" stroke="#263238" stroke-width="0.108349" stroke-linecap="round" stroke-linejoin="round"/>
<path d="M119.098 139.734H125.08" stroke="#263238" stroke-width="0.108349" stroke-linecap="round" stroke-linejoin="round"/>
<path d="M127.844 139.734H133.826" stroke="#263238" stroke-width="0.108349" stroke-linecap="round" stroke-linejoin="round"/>
<path d="M136.594 139.734H142.576" stroke="#263238" stroke-width="0.108349" stroke-linecap="round" stroke-linejoin="round"/>
<path d="M145.34 139.734H151.323" stroke="#263238" stroke-width="0.108349" stroke-linecap="round" stroke-linejoin="round"/>
<path d="M154.09 139.734H160.073" stroke="#263238" stroke-width="0.108349" stroke-linecap="round" stroke-linejoin="round"/>
<path d="M162.836 139.734H168.819" stroke="#263238" stroke-width="0.108349" stroke-linecap="round" stroke-linejoin="round"/>
<path d="M171.582 139.734H177.565" stroke="#263238" stroke-width="0.108349" stroke-linecap="round" stroke-linejoin="round"/>
<path d="M88.8672 135.75H183.836" stroke="#263238" stroke-width="0.108349" stroke-linecap="round" stroke-linejoin="round"/>
<path d="M88.8672 133.254H90.8585" stroke="#263238" stroke-width="0.108349" stroke-linecap="round" stroke-linejoin="round"/>
<path d="M88.8672 130.668H90.8585" stroke="#263238" stroke-width="0.108349" stroke-linecap="round" stroke-linejoin="round"/>
<path d="M88.8672 128.086H90.8585" stroke="#263238" stroke-width="0.108349" stroke-linecap="round" stroke-linejoin="round"/>
<path d="M88.8672 125.496H90.8585" stroke="#263238" stroke-width="0.108349" stroke-linecap="round" stroke-linejoin="round"/>
<path d="M88.8672 122.914H90.8585" stroke="#263238" stroke-width="0.108349" stroke-linecap="round" stroke-linejoin="round"/>
<path d="M88.8672 120.328H90.8585" stroke="#263238" stroke-width="0.108349" stroke-linecap="round" stroke-linejoin="round"/>
<path d="M88.8672 117.742H90.8585" stroke="#263238" stroke-width="0.108349" stroke-linecap="round" stroke-linejoin="round"/>
<path d="M88.8672 115.156H90.8585" stroke="#263238" stroke-width="0.108349" stroke-linecap="round" stroke-linejoin="round"/>
<path d="M88.8672 112.574H90.8585" stroke="#263238" stroke-width="0.108349" stroke-linecap="round" stroke-linejoin="round"/>
<path d="M88.8672 109.988H90.8585" stroke="#263238" stroke-width="0.108349" stroke-linecap="round" stroke-linejoin="round"/>
<path d="M88.8672 107.398H90.8585" stroke="#263238" stroke-width="0.108349" stroke-linecap="round" stroke-linejoin="round"/>
<path d="M88.8672 104.82H90.8585" stroke="#263238" stroke-width="0.108349" stroke-linecap="round" stroke-linejoin="round"/>
<path d="M116.07 105.352H111.526C111.426 105.352 111.328 105.371 111.236 105.409C111.144 105.448 111.061 105.504 110.991 105.574C110.921 105.645 110.865 105.728 110.828 105.82C110.79 105.912 110.771 106.011 110.771 106.11V109.238C110.771 109.438 110.851 109.631 110.992 109.773C111.134 109.915 111.325 109.995 111.526 109.997H112.842L113.719 111.821L114.596 110.01H116.074C116.275 110.009 116.468 109.928 116.61 109.786C116.752 109.644 116.832 109.452 116.833 109.251V106.124C116.835 106.022 116.816 105.922 116.779 105.828C116.741 105.734 116.685 105.649 116.614 105.577C116.543 105.505 116.458 105.448 116.365 105.409C116.271 105.371 116.171 105.351 116.07 105.352Z" fill="#C7C7C7"/>
<path d="M106.918 111.359H102.374C102.173 111.359 101.982 111.439 101.84 111.58C101.699 111.722 101.619 111.914 101.619 112.114V115.259C101.619 115.459 101.699 115.651 101.84 115.792C101.982 115.934 102.173 116.013 102.374 116.013H103.689L104.567 117.842L105.444 116.031H106.926C107.126 116.031 107.318 115.951 107.46 115.81C107.601 115.668 107.681 115.476 107.681 115.276V112.145C107.685 112.042 107.668 111.94 107.632 111.844C107.595 111.749 107.539 111.661 107.468 111.588C107.397 111.514 107.311 111.456 107.216 111.417C107.122 111.378 107.02 111.358 106.918 111.359Z" fill="#C7C7C7"/>
<path d="M98.1466 115.262H93.6026C93.4013 115.262 93.2083 115.342 93.066 115.484C92.9237 115.626 92.8438 115.819 92.8438 116.021V119.148C92.8449 119.349 92.9252 119.541 93.0673 119.683C93.2093 119.825 93.4017 119.906 93.6026 119.907H94.9184L95.7956 121.736L96.6729 119.92H98.1554C98.3559 119.919 98.5478 119.838 98.6891 119.696C98.8305 119.554 98.9098 119.362 98.9098 119.161V116.034C98.9122 115.932 98.8941 115.832 98.8567 115.738C98.8193 115.643 98.7633 115.558 98.6921 115.486C98.6209 115.414 98.5359 115.357 98.4422 115.318C98.3484 115.28 98.2479 115.261 98.1466 115.262Z" fill="#C7C7C7"/>
<path d="M124.558 119.086H120.019C119.919 119.085 119.821 119.105 119.729 119.142C119.636 119.18 119.553 119.235 119.482 119.305C119.412 119.376 119.356 119.459 119.318 119.551C119.279 119.643 119.26 119.741 119.26 119.84V122.972C119.26 123.072 119.279 123.17 119.318 123.262C119.356 123.354 119.412 123.437 119.482 123.507C119.553 123.577 119.636 123.633 119.729 123.67C119.821 123.708 119.919 123.727 120.019 123.727H121.334L122.212 125.556L123.089 123.744H124.567C124.768 123.744 124.96 123.665 125.102 123.523C125.244 123.382 125.325 123.19 125.326 122.99V119.858C125.328 119.756 125.309 119.656 125.271 119.561C125.233 119.467 125.177 119.382 125.105 119.31C125.034 119.238 124.948 119.181 124.854 119.142C124.76 119.104 124.66 119.085 124.558 119.086Z" fill="#C7C7C7"/>
<path d="M133.33 120.703H128.79C128.589 120.703 128.396 120.783 128.254 120.925C128.111 121.068 128.031 121.261 128.031 121.462V124.589C128.031 124.689 128.05 124.788 128.088 124.88C128.126 124.973 128.182 125.057 128.252 125.127C128.323 125.198 128.407 125.254 128.499 125.292C128.591 125.329 128.69 125.349 128.79 125.348H130.106L130.983 127.177L131.86 125.366H133.339C133.438 125.366 133.537 125.347 133.63 125.309C133.722 125.271 133.806 125.215 133.876 125.145C133.947 125.074 134.003 124.99 134.041 124.898C134.079 124.806 134.098 124.707 134.097 124.607V121.48C134.1 121.378 134.082 121.276 134.044 121.182C134.006 121.087 133.95 121.001 133.878 120.928C133.807 120.856 133.721 120.799 133.627 120.76C133.533 120.721 133.432 120.702 133.33 120.703Z" fill="#C7C7C7"/>
<path d="M142.108 108.023H137.563C137.363 108.023 137.171 108.103 137.028 108.244C136.886 108.385 136.806 108.577 136.805 108.778V111.91C136.806 112.11 136.886 112.302 137.028 112.443C137.171 112.585 137.363 112.664 137.563 112.664H138.879L139.757 114.493L140.612 112.682H142.094C142.294 112.682 142.486 112.602 142.628 112.461C142.769 112.319 142.849 112.127 142.849 111.927V108.795C142.851 108.696 142.834 108.597 142.798 108.504C142.762 108.412 142.708 108.327 142.639 108.255C142.57 108.183 142.487 108.126 142.396 108.086C142.305 108.047 142.207 108.025 142.108 108.023Z" fill="#C7C7C7"/>
<path d="M150.688 104.113H146.157C145.956 104.115 145.764 104.195 145.622 104.337C145.48 104.479 145.4 104.671 145.398 104.872V108C145.398 108.201 145.478 108.394 145.621 108.536C145.763 108.678 145.956 108.758 146.157 108.758H147.473L148.35 110.587L149.228 108.776H150.706C150.806 108.777 150.904 108.757 150.997 108.719C151.089 108.681 151.173 108.626 151.244 108.555C151.314 108.484 151.37 108.401 151.408 108.308C151.446 108.216 151.465 108.117 151.465 108.017V104.89C151.467 104.787 151.448 104.685 151.41 104.59C151.372 104.495 151.315 104.408 151.242 104.336C151.17 104.263 151.083 104.206 150.988 104.168C150.893 104.13 150.791 104.111 150.688 104.113Z" fill="#C7C7C7"/>
<path d="M159.367 101.063H154.823C154.623 101.063 154.431 101.142 154.289 101.283C154.148 101.425 154.068 101.617 154.068 101.817V104.949C154.068 105.149 154.148 105.341 154.289 105.482C154.431 105.624 154.623 105.703 154.823 105.703H156.139L157.016 107.532L157.893 105.721H159.371C159.572 105.721 159.764 105.641 159.906 105.5C160.048 105.359 160.129 105.167 160.13 104.966V101.834C160.132 101.733 160.113 101.633 160.076 101.539C160.038 101.445 159.982 101.36 159.911 101.288C159.84 101.216 159.755 101.159 159.662 101.12C159.568 101.082 159.468 101.062 159.367 101.063Z" fill="#C7C7C7"/>
<path d="M167.855 110.98H163.311C163.212 110.98 163.114 111 163.022 111.038C162.931 111.076 162.848 111.131 162.778 111.201C162.708 111.271 162.652 111.355 162.614 111.446C162.576 111.538 162.557 111.636 162.557 111.735V114.867C162.557 114.966 162.576 115.064 162.614 115.155C162.652 115.247 162.708 115.33 162.778 115.4C162.848 115.47 162.931 115.526 163.022 115.564C163.114 115.602 163.212 115.621 163.311 115.621H164.627L165.504 117.45L166.381 115.639H167.86C168.06 115.639 168.252 115.559 168.395 115.418C168.537 115.277 168.617 115.085 168.618 114.884V111.752C168.62 111.651 168.602 111.551 168.564 111.457C168.526 111.363 168.47 111.278 168.399 111.206C168.328 111.134 168.243 111.077 168.15 111.038C168.056 111 167.956 110.98 167.855 110.98Z" fill="#C7C7C7"/>
<path d="M176.912 116.137H172.372C172.272 116.135 172.173 116.152 172.079 116.188C171.986 116.225 171.901 116.279 171.829 116.348C171.757 116.418 171.699 116.5 171.659 116.592C171.619 116.684 171.597 116.783 171.596 116.883V120.014C171.597 120.215 171.677 120.407 171.819 120.548C171.962 120.689 172.154 120.769 172.355 120.769H173.67L174.548 122.598L175.425 120.786H176.903C177.002 120.787 177.101 120.768 177.193 120.73C177.285 120.692 177.369 120.637 177.439 120.567C177.51 120.497 177.566 120.413 177.604 120.322C177.642 120.23 177.662 120.131 177.662 120.032V116.883C177.659 116.685 177.58 116.496 177.439 116.356C177.299 116.217 177.11 116.138 176.912 116.137Z" fill="#C7C7C7"/>
<path d="M148.509 136.754L146.272 134.087C146.272 134.087 145.417 131.53 144.777 130.679C144.136 129.828 142.54 129.719 140.623 128.548C138.706 127.377 137.956 127.482 138.276 128.868C138.597 130.254 140.834 131.745 140.834 131.745C140.834 131.745 136.575 131.64 136.254 131.53C135.934 131.421 133.057 130.574 132.417 130.144C131.776 129.714 130.5 130.144 131.136 131.53C131.772 132.916 133.803 135.916 135.294 136.969C136.785 138.022 136.465 138.245 139.342 138.671C142.22 139.096 142.965 138.991 142.965 138.991L144.671 140.592L148.509 136.754Z" fill="white" stroke="#263238" stroke-width="0.108349" stroke-linecap="round" stroke-linejoin="round"/>
<path d="M134.548 136.211C134.548 136.211 132.737 130.031 133.803 130.886C134.869 131.741 137 135.36 137 135.36C137 135.36 142.009 134.614 143.395 136.105" fill="white"/>
<path d="M134.548 136.211C134.548 136.211 132.737 130.031 133.803 130.886C134.869 131.741 137 135.36 137 135.36C137 135.36 142.009 134.614 143.395 136.105" stroke="#263238" stroke-width="0.108349" stroke-linecap="round" stroke-linejoin="round"/>
<path d="M151.492 139.088L147.658 136.105L143.715 140.689L147.974 143.461L151.492 139.088Z" fill="white" stroke="#263238" stroke-width="0.108349" stroke-linecap="round" stroke-linejoin="round"/>
<path d="M173.181 166.181L172.418 171.006C172.418 171.006 169.786 178.572 169.896 179.998C170.006 181.423 173.129 223.421 173.129 223.421H207.656C207.656 223.421 206.288 178.454 206.178 177.366C206.069 176.278 205.099 168.401 205.099 168.401C205.099 168.401 185.019 168.489 184.366 168.379C183.712 168.269 172.857 165.309 172.857 165.309L173.181 166.181Z" fill="#263238" stroke="#263238" stroke-width="0.108349" stroke-linecap="round" stroke-linejoin="round"/>
<path d="M182.613 186.789L190.394 188.982" stroke="#696969" stroke-width="0.108349" stroke-linecap="round" stroke-linejoin="round"/>
<path d="M187.434 188.32L188.776 222.3" stroke="#696969" stroke-width="0.108349" stroke-linecap="round" stroke-linejoin="round"/>
<path d="M189.516 173.411C197.586 173.117 201.148 172.731 205.284 169.88L205.1 168.393C205.1 168.393 185.02 168.481 184.366 168.371C183.713 168.261 172.857 165.301 172.857 165.301L173.182 166.178L172.629 169.687C175.212 170.88 182.068 173.683 189.516 173.411Z" fill="#878787" stroke="#263238" stroke-width="0.108349" stroke-linecap="round" stroke-linejoin="round"/>
<path d="M185.459 171.551V173.086L189.516 173.415L189.753 171.595L185.459 171.551Z" fill="white" stroke="#263238" stroke-width="0.108349" stroke-linecap="round" stroke-linejoin="round"/>
<path d="M185.17 120.762C185.17 120.762 170.143 124.915 169.717 125.354C169.292 125.793 167.265 137.929 167.265 137.929L163.318 144.219L152.023 138.249C152.023 138.249 149.782 139.315 149.251 139.956C148.721 140.596 145.742 143.903 146.694 144.965C147.646 146.026 161.168 155.623 163.212 156.899C165.256 158.176 166.09 158.5 167.05 157.434C168.011 156.369 172.7 149.868 172.7 149.868L172.476 163.606C172.476 163.606 171.09 164.141 171.41 165.417C171.583 166.153 171.91 166.844 172.371 167.444H173.647C173.647 167.444 178.871 172.027 189.74 171.597C200.609 171.168 204.236 169.466 205.091 168.4C205.947 167.334 206.052 167.338 205.837 166.483C205.689 165.815 205.582 165.138 205.517 164.457L208.504 145.807L217.039 151.671C217.039 151.671 225.246 152.947 226.628 151.991C228.009 151.035 228.439 150.39 227.378 148.482C226.316 146.574 217.465 136.118 217.465 136.118C217.465 136.118 214.052 127.701 213.517 126.955C212.982 126.209 198.916 120.77 198.916 120.77L185.17 120.762Z" fill="white" stroke="#263238" stroke-width="0.108349" stroke-linecap="round" stroke-linejoin="round"/>
<path d="M163.322 144.211C163.322 144.211 164.792 146.141 164.897 147.768" stroke="#263238" stroke-width="0.108349" stroke-linecap="round" stroke-linejoin="round"/>
<path d="M172.703 149.854V136.639L171.848 132.266" stroke="#263238" stroke-width="0.108349" stroke-linecap="round" stroke-linejoin="round"/>
<path d="M170.554 133.519L169.932 132.059" stroke="#263238" stroke-width="0.108349" stroke-linecap="round" stroke-linejoin="round"/>
<path d="M172.703 138.555L171.207 135.051" stroke="#263238" stroke-width="0.108349" stroke-linecap="round" stroke-linejoin="round"/>
<path d="M208.514 145.801L211.176 133.121" stroke="#263238" stroke-width="0.108349" stroke-linecap="round" stroke-linejoin="round"/>
<path d="M212.024 136.871C211.037 138.362 209.993 140.082 209.682 141.117" stroke="#263238" stroke-width="0.108349" stroke-linecap="round" stroke-linejoin="round"/>
<path d="M214.052 133.977C214.052 133.977 213.613 134.582 212.99 135.459" stroke="#263238" stroke-width="0.108349" stroke-linecap="round" stroke-linejoin="round"/>
<path d="M213.412 140.791C213.412 140.791 215.653 137.809 218.421 137.809" stroke="#263238" stroke-width="0.108349" stroke-linecap="round" stroke-linejoin="round"/>
<path d="M199.109 162.165C201.478 158.967 204.882 154.291 205.956 152.414" stroke="#263238" stroke-width="0.108349" stroke-linecap="round" stroke-linejoin="round"/>
<path d="M196.684 165.418C196.684 165.418 197.223 164.703 198.048 163.598" stroke="#263238" stroke-width="0.108349" stroke-linecap="round" stroke-linejoin="round"/>
<path d="M204.676 159.551L200.838 165.411" stroke="#263238" stroke-width="0.108349" stroke-linecap="round" stroke-linejoin="round"/>
<path d="M188.267 117.453C188.267 117.453 186.991 117.558 186.671 117.892C186.35 118.225 184.004 120.879 184.004 120.879C184.004 120.879 184.324 130.682 184.881 130.362C185.438 130.041 189.57 126.204 189.995 125.778C190.421 125.353 196.162 130.669 196.469 130.884C196.776 131.098 197.005 132.055 197.32 131.094C197.636 130.134 200.829 121.716 200.518 120.866C200.206 120.015 198.176 117.453 198.176 117.453C198.176 117.453 190.395 119.05 188.267 117.453Z" fill="white" stroke="#263238" stroke-width="0.108349" stroke-linecap="round" stroke-linejoin="round"/>
<path d="M185.918 96.779C185.918 96.779 183.036 100.727 183.251 101.577C183.466 102.428 182.813 103.92 182.813 103.92C182.813 103.92 178.975 106.902 179.4 107.758C179.841 108.468 180.38 109.113 181.001 109.674C181.001 109.674 180.896 117.131 181.852 117.131C182.808 117.131 186.65 117.346 186.65 117.346C186.65 117.346 189.848 129.066 190.914 128.43C191.98 127.794 198.054 118.302 198.054 118.302L199.226 113.828C199.226 113.828 203.612 111.907 204.875 105.621C206.138 99.3361 202.634 95.6035 200.397 94.0025C198.16 92.4016 193.576 92.191 193.576 92.191C193.576 92.191 195.282 91.1252 193.576 90.3796C191.87 89.6339 189.528 90.6997 189.528 90.6997C189.528 90.6997 189.418 87.9277 186.971 89.4234C184.523 90.9191 181.545 93.7964 185.918 96.779Z" fill="white" stroke="#263238" stroke-width="0.108349" stroke-linecap="round" stroke-linejoin="round"/>
<path d="M200.411 94.0064C198.174 92.4099 193.591 92.195 193.591 92.195C193.591 92.195 195.297 91.1291 193.591 90.3835C191.885 89.6378 189.543 90.7037 189.543 90.7037C189.543 90.7037 189.433 87.9316 186.985 89.4273C184.538 90.923 181.547 93.8134 185.92 96.7785C185.92 96.7785 194.762 97.5241 192.42 99.0154C190.078 100.507 189.007 100.616 190.608 101.682C192.209 102.748 193.591 105.09 193.591 105.09C193.591 105.09 192.42 107.437 192.951 107.862C193.481 108.288 194.122 108.397 194.551 107.757C194.981 107.117 196.253 104.88 198.06 105.41C199.868 105.941 199.657 108.288 198.271 109.797C197.365 110.724 196.223 111.387 194.968 111.713C194.968 111.713 197.525 113.205 198.376 113.525C198.833 113.615 199.302 113.625 199.762 113.556C200.964 112.819 203.876 110.577 204.881 105.639C206.166 99.3356 202.648 95.6074 200.411 94.0064Z" fill="#263238" stroke="#263238" stroke-width="0.108349" stroke-linecap="round" stroke-linejoin="round"/>
<path d="M182.721 111.058C182.721 111.058 184.743 110.953 185.703 109.887C185.703 109.887 185.488 112.018 184.743 112.124C183.997 112.229 182.721 111.058 182.721 111.058Z" stroke="#263238" stroke-width="0.108349" stroke-linecap="round" stroke-linejoin="round"/>
<path d="M185.809 104.185C185.809 104.624 185.62 104.983 185.37 104.983C185.12 104.983 184.932 104.628 184.932 104.185C184.932 103.742 185.12 103.387 185.37 103.387C185.62 103.387 185.809 103.742 185.809 104.185Z" fill="#263238"/>
<path d="M184.318 102.642C184.318 102.642 186.025 101.577 186.875 102.958" stroke="#263238" stroke-width="0.108349" stroke-linecap="round" stroke-linejoin="round"/>
<path d="M186.664 117.35L190.287 117.241L192.419 115.004L188.261 122.145L186.664 117.35Z" fill="#263238" stroke="#263238" stroke-width="0.108349" stroke-linecap="round" stroke-linejoin="round"/>
<path d="M207.564 144.416L204.261 142.714C203.799 142.077 203.22 141.534 202.555 141.113C201.704 140.675 200.958 141.113 198.397 140.368C195.835 139.622 194.888 139.727 195.327 140.903C195.765 142.078 198.397 142.179 198.397 142.179L199.463 142.819L192.309 144.21L188.668 145.784C188.586 145.822 188.517 145.885 188.471 145.963C188.426 146.042 188.406 146.133 188.414 146.223C188.433 146.333 188.494 146.432 188.584 146.499C188.673 146.566 188.785 146.596 188.896 146.583L192.098 146.113L195.77 145.85L189.848 148.557C189.728 148.621 189.631 148.722 189.571 148.845C189.512 148.968 189.494 149.107 189.519 149.241C189.535 149.331 189.569 149.416 189.62 149.492C189.671 149.567 189.737 149.631 189.815 149.679C189.893 149.727 189.98 149.757 190.07 149.769C190.161 149.78 190.252 149.772 190.339 149.745L196.16 148.377L192.388 151.293C192.275 151.368 192.193 151.479 192.154 151.608C192.116 151.737 192.124 151.876 192.177 152C192.238 152.138 192.351 152.247 192.491 152.302C192.632 152.357 192.789 152.354 192.927 152.294L196.625 150.697L194.809 153.057C194.76 153.119 194.733 153.196 194.733 153.276C194.733 153.356 194.76 153.433 194.809 153.495C194.866 153.565 194.947 153.612 195.036 153.625C195.126 153.638 195.217 153.617 195.291 153.565C196.129 152.973 198.638 151.215 198.906 151.127C199.173 151.039 201.783 149.956 202.208 149.85C202.634 149.745 204.235 149.21 204.235 149.21L207.643 150.381L207.564 144.416Z" stroke="#263238" stroke-width="0.108349" stroke-linecap="round" stroke-linejoin="round"/>
<path d="M210.748 144.953L207.564 144.418L206.91 151.23L210.533 151.98C210.533 151.98 210.963 146.229 210.748 144.953Z" fill="white" stroke="#263238" stroke-width="0.108349" stroke-linecap="round" stroke-linejoin="round"/>
<path d="M225.456 145.804C225.456 145.804 211.28 143.672 210.749 144.953C210.218 146.233 209.258 152.624 210.644 153.159C212.03 153.694 225.118 158.808 226.201 157.953C227.285 157.098 229.399 154.883 229.399 152.413C229.399 149.944 225.456 145.804 225.456 145.804Z" fill="white" stroke="#263238" stroke-width="0.108349" stroke-linecap="round" stroke-linejoin="round"/>
<path d="M15.0879 248.533L97.4206 206.457H207.658L288.609 248.533" fill="white"/>
<path d="M15.0879 248.533L97.4206 206.457H207.658L288.609 248.533" stroke="#263238" stroke-width="0.108349" stroke-linecap="round" stroke-linejoin="round"/>
<path d="M149.641 217.281L135.943 226.04L155.931 228.062L167.383 219.08L149.641 217.281Z" fill="white" stroke="#263238" stroke-width="0.108349" stroke-linecap="round" stroke-linejoin="round"/>
<path d="M160.645 220.426L145.824 230.755L165.36 232.777L178.163 222.671L160.645 220.426Z" fill="white" stroke="#263238" stroke-width="0.108349" stroke-linecap="round" stroke-linejoin="round"/>
<path d="M129.877 217.512L124.486 230.311L143.803 230.986L146.948 217.959L129.877 217.512Z" fill="white" stroke="#263238" stroke-width="0.108349" stroke-linecap="round" stroke-linejoin="round"/>
<path d="M180.355 213.676L201.554 213.066L214.489 225.611L189.852 226.348L180.355 213.676Z" fill="#C7C7C7" stroke="#263238" stroke-width="0.108349" stroke-linecap="round" stroke-linejoin="round"/>
<path d="M202.443 215.797L195.732 216.214L201.864 222.841L209.075 222.341L202.443 215.797Z" fill="#C7C7C7" stroke="#263238" stroke-width="0.108349" stroke-linecap="round" stroke-linejoin="round"/>
<path d="M185.014 215.326L193.233 215.094L201.19 224.213L191.917 224.537L185.014 215.326Z" fill="#263238" stroke="#263238" stroke-width="0.108349" stroke-linecap="round" stroke-linejoin="round"/>
<path d="M189.852 226.347L184.247 203.679L175.119 194.688L180.356 213.675L189.852 226.347Z" fill="#878787" stroke="#263238" stroke-width="0.108349" stroke-linecap="round" stroke-linejoin="round"/>
<path d="M255.921 191.664L267.132 194.651C268.145 194.921 269.053 195.49 269.738 196.283C270.323 196.956 270.727 197.767 270.91 198.64C271.094 199.513 271.051 200.418 270.786 201.27L261.014 233.824L246.75 226.552L255.921 191.664Z" fill="#263238" stroke="#263238" stroke-width="0.108349" stroke-linecap="round" stroke-linejoin="round"/>
<path d="M230.939 180.5C230.939 180.5 224.671 182.803 223.741 183.812C222.811 184.821 220.197 202.322 220.197 202.322C220.197 202.322 217.565 203.234 217.565 203.923V204.607C217.565 204.607 214.71 205.861 213.684 206.664C212.657 207.467 212.311 207.576 213.684 208.949C215.057 210.322 217.109 212.831 219.508 213.634C221.908 214.436 222.416 214.537 222.416 214.537L251.084 228.858C251.084 228.858 260.072 187.457 260.186 186.54C260.3 185.624 246.703 178.886 245.448 178.207C244.194 177.527 230.939 180.5 230.939 180.5Z" fill="#147AA6" stroke="#263238" stroke-width="0.108349" stroke-linecap="round" stroke-linejoin="round"/>
<path d="M231.736 179.818C231.736 179.818 230.481 181.187 230.595 181.761C230.709 182.336 231.034 185.529 231.034 186.327V191.139L235.034 180.744L234.345 178.801L231.736 179.818Z" fill="#147AA6" stroke="#263238" stroke-width="0.108349" stroke-linecap="round" stroke-linejoin="round"/>
<path d="M246.246 175.135L243.245 173.793L233.442 181.877C232.535 183.792 231.919 185.832 231.613 187.93C231.043 191.588 230.131 202.781 230.131 202.781C230.131 202.781 234.583 193.298 235.157 192.254C235.732 191.21 235.842 186.886 235.842 186.886C235.842 186.886 241.324 185.057 243.039 181.859C244.754 178.662 246.246 175.135 246.246 175.135Z" fill="white" stroke="#263238" stroke-width="0.108349" stroke-linecap="round" stroke-linejoin="round"/>
<path d="M221.795 164.052C221.795 164.052 222.234 166.793 222.594 167.368C222.953 167.942 223.396 170.223 223.396 170.223C223.396 170.223 223.168 173.42 223.739 174.447C224.309 175.473 227.392 181.188 228.879 181.416C230.366 181.644 232.765 180.618 232.765 180.618L232.993 183.359C232.993 183.359 234.59 184.39 238.362 182.789C242.134 181.188 243.959 178.561 244.187 177.526C244.415 176.491 242.362 171.469 242.362 171.469V168.508C242.928 167.789 243.342 166.963 243.577 166.079C243.812 165.195 243.865 164.272 243.731 163.367C243.292 160.297 243.959 159.367 237.906 157.771C231.853 156.174 224.537 158.683 222.826 159.823C221.116 160.964 221.795 164.052 221.795 164.052Z" fill="white" stroke="#263238" stroke-width="0.108349" stroke-linecap="round" stroke-linejoin="round"/>
<path d="M235.736 163.713L236.649 164.511L236.991 167.024C236.991 167.024 238.136 167.827 238.478 166.682C238.82 165.537 238.25 163.612 239.618 162.914C240.987 162.217 242.25 161.998 242.25 164.397C242.25 166.796 240.991 170.682 240.991 170.682C240.991 170.682 242.136 172.055 242.364 171.481C242.592 170.906 244.188 161.541 244.188 161.541C242.99 160.82 241.729 160.208 240.421 159.712C238.934 159.256 235.736 163.713 235.736 163.713Z" fill="#263238" stroke="#263238" stroke-width="0.108349" stroke-linecap="round" stroke-linejoin="round"/>
<path d="M231.281 160.055C231.281 160.055 228.426 161.31 228.211 162.687C227.996 164.064 226.382 166.227 223.982 166.227C221.583 166.227 221.811 163.595 220.443 163.485C219.074 163.376 216.557 163.827 216.557 159.713C216.557 155.599 219.412 155.375 220.557 154.573C221.702 153.77 220.21 153.66 222.039 151.375C223.868 149.09 225.469 149.888 227.066 149.888C228.662 149.888 228.211 147.717 231.066 147.489C233.921 147.261 234.952 148.177 235.408 148.748C235.865 149.318 238.264 148.634 239.979 149.774C241.694 150.914 241.803 151.945 242.72 152.976C243.637 154.007 245.352 153.318 245.119 155.608C244.887 157.897 244.203 158.919 244.549 159.489C244.896 160.06 245.575 160.064 245.233 161.09C244.891 162.117 243.632 163.033 243.746 163.376C243.861 163.718 241.115 163.946 239.632 162.937C238.15 161.928 238.492 163.735 235.75 163.735C233.009 163.735 230.939 161.538 231.281 160.055Z" fill="#263238" stroke="#263238" stroke-width="0.108349" stroke-linecap="round" stroke-linejoin="round"/>
<path d="M238.477 166.68C238.477 166.68 238.591 164.048 239.617 162.912C240.643 161.776 242.477 163.141 242.135 165.654C241.793 168.167 240.306 170.917 239.161 170.794" fill="white"/>
<path d="M238.477 166.68C238.477 166.68 238.591 164.048 239.617 162.912C240.643 161.776 242.477 163.141 242.135 165.654C241.793 168.167 240.306 170.917 239.161 170.794" stroke="#263238" stroke-width="0.108349" stroke-linecap="round" stroke-linejoin="round"/>
<path d="M233.004 183.356C233.004 183.356 234.601 184.387 238.373 182.786C242.145 181.185 243.97 178.558 244.198 177.523C244.321 176.966 243.759 175.251 243.255 173.781C240.136 178.567 232.768 180.611 232.768 180.611L233.004 183.356Z" fill="white" stroke="#263238" stroke-width="0.108349" stroke-linecap="round" stroke-linejoin="round"/>
<path d="M232.768 180.619L238.022 176.391L235.965 179.246L232.768 180.619Z" fill="#263238" stroke="#263238" stroke-width="0.108349" stroke-linecap="round" stroke-linejoin="round"/>
<path d="M226.141 175.136C226.141 175.136 228.772 176.733 231.843 173.535" stroke="#263238" stroke-width="0.108349" stroke-linecap="round" stroke-linejoin="round"/>
<path d="M230.854 169.147C231.039 169.717 230.969 170.252 230.701 170.34C230.433 170.428 230.061 170.033 229.876 169.463C229.692 168.892 229.762 168.362 230.03 168.274C230.297 168.186 230.67 168.577 230.854 169.147Z" fill="#263238"/>
<path d="M225.599 169.147C225.783 169.717 225.713 170.252 225.445 170.34C225.178 170.428 224.805 170.033 224.621 169.463C224.436 168.892 224.506 168.362 224.774 168.274C225.042 168.186 225.414 168.577 225.599 169.147Z" fill="#263238"/>
<path d="M228.881 167.252C228.881 167.252 231.052 166.107 232.192 167.48" stroke="#263238" stroke-width="0.108349" stroke-linecap="round" stroke-linejoin="round"/>
<path d="M223.396 167.132C223.396 167.132 224.993 166.562 225.226 167.25L226.138 169.189L225.568 174.215L228.537 173.645" stroke="#263238" stroke-width="0.108349" stroke-linecap="round" stroke-linejoin="round"/>
<path d="M246.247 175.137C246.247 175.137 239.163 184.962 235.852 186.905L238.365 191.243C238.365 191.243 245.22 185.076 246.475 182.334L247.734 179.593L246.247 175.137Z" fill="#147AA6" stroke="#263238" stroke-width="0.108349" stroke-linecap="round" stroke-linejoin="round"/>
<path d="M247.505 190.326L245.219 210.204C245.219 210.204 243.846 210.204 243.846 211.121C243.831 211.773 243.754 212.422 243.618 213.06L220.543 217.63C220.543 217.63 212.209 216.49 211.516 216.718C210.823 216.946 208.911 218.727 208.226 219.297C207.542 219.867 204.748 222.455 205.204 223.139C205.661 223.823 207.608 222.179 207.608 222.179C207.608 222.179 205.919 224.6 206.832 224.372C207.744 224.144 208.911 222.867 208.911 222.867L210.696 221.766C210.696 221.766 208.547 224.6 209.231 224.486C209.915 224.372 211.174 223.459 211.174 223.459L211.972 223.021C211.972 223.021 210.485 224.503 211.288 224.731C212.091 224.959 213.801 223.135 213.801 223.135L215.284 222.218C215.774 222.471 216.311 222.621 216.861 222.661C217.412 222.7 217.964 222.627 218.486 222.446C220.429 221.876 221.797 221.306 221.797 221.306C221.797 221.306 249.43 223.819 251.272 223.249C253.114 222.679 254.93 222.56 255.386 221.534C255.843 220.507 259.729 187.26 260.185 186.572C260.641 185.883 252.987 182.918 252.987 182.918" fill="#147AA6"/>
<path d="M247.505 190.326L245.219 210.204C245.219 210.204 243.846 210.204 243.846 211.121C243.831 211.773 243.754 212.422 243.618 213.06L220.543 217.63C220.543 217.63 212.209 216.49 211.516 216.718C210.823 216.946 208.911 218.727 208.226 219.297C207.542 219.867 204.748 222.455 205.204 223.139C205.661 223.823 207.608 222.179 207.608 222.179C207.608 222.179 205.919 224.6 206.832 224.372C207.744 224.144 208.911 222.867 208.911 222.867L210.696 221.766C210.696 221.766 208.547 224.6 209.231 224.486C209.915 224.372 211.174 223.459 211.174 223.459L211.972 223.021C211.972 223.021 210.485 224.503 211.288 224.731C212.091 224.959 213.801 223.135 213.801 223.135L215.284 222.218C215.774 222.471 216.311 222.621 216.861 222.661C217.412 222.7 217.964 222.627 218.486 222.446C220.429 221.876 221.797 221.306 221.797 221.306C221.797 221.306 249.43 223.819 251.272 223.249C253.114 222.679 254.93 222.56 255.386 221.534C255.843 220.507 259.729 187.26 260.185 186.572C260.641 185.883 252.987 182.918 252.987 182.918" stroke="#263238" stroke-width="0.108349" stroke-linecap="round" stroke-linejoin="round"/>
<path d="M231.514 215.461L220.549 217.632L225.667 216.619C226.488 217.426 227.422 218.961 227.554 221.795C229.22 221.935 231.133 222.097 233.137 222.259C234.365 218.088 231.87 215.764 231.514 215.461Z" fill="#147AA6" stroke="#263238" stroke-width="0.108349" stroke-linecap="round" stroke-linejoin="round"/>
<path d="M244.406 213.462C244.406 213.462 250.38 215.524 252.301 217.309C254.222 219.094 250.31 214.151 247.7 212.844" stroke="#263238" stroke-width="0.108349" stroke-linecap="round" stroke-linejoin="round"/>
<path d="M225.661 216.617L220.543 217.63C220.543 217.63 212.209 216.49 211.516 216.718C210.823 216.946 208.911 218.727 208.226 219.297C207.542 219.867 204.748 222.455 205.204 223.139C205.661 223.824 207.608 222.179 207.608 222.179C207.608 222.179 205.919 224.6 206.832 224.372C207.744 224.144 208.911 222.867 208.911 222.867L210.696 221.767C210.696 221.767 208.547 224.6 209.231 224.486C209.915 224.372 211.174 223.46 211.174 223.46L211.972 223.021C211.972 223.021 210.485 224.504 211.288 224.732C212.091 224.96 213.801 223.135 213.801 223.135L215.284 222.218C215.774 222.471 216.311 222.622 216.861 222.661C217.412 222.7 217.964 222.627 218.486 222.446C220.429 221.876 221.797 221.306 221.797 221.306C221.797 221.306 224.161 221.521 227.547 221.81C227.425 218.959 226.482 217.424 225.661 216.617Z" fill="white" stroke="#263238" stroke-width="0.108349" stroke-linecap="round" stroke-linejoin="round"/>
<path d="M211.973 223.009C211.973 223.009 213.995 220.952 214.819 220.676" stroke="#263238" stroke-width="0.108349" stroke-linecap="round" stroke-linejoin="round"/>
<path d="M210.697 221.77C210.697 221.77 212.759 219.507 213.583 219.23" stroke="#263238" stroke-width="0.108349" stroke-linecap="round" stroke-linejoin="round"/>
<path d="M207.605 222.181C207.605 222.181 210.834 218.475 211.992 217.992" stroke="#263238" stroke-width="0.108349" stroke-linecap="round" stroke-linejoin="round"/>
<path d="M213.266 207.851L210.661 211.123C210.661 211.123 202.713 211.391 201.375 211.724C200.037 212.058 198.305 215.996 198.305 216.799C198.305 217.602 199.107 217.536 199.506 217.001C199.906 216.466 201.107 213.996 201.107 213.996C201.107 213.996 199.792 217.869 199.792 218.268C199.792 218.668 200.669 218.268 200.669 218.268C200.669 218.268 200.603 219.071 201.068 219.273C201.533 219.475 202.603 218.804 202.603 218.804C202.603 218.804 202.871 219.339 203.673 218.869C204.476 218.4 206.41 215.264 206.945 214.922C207.481 214.58 209.016 214.856 209.016 214.856C209.016 214.856 207.481 215.588 206.88 216.856C206.279 218.124 206.41 218.527 206.814 218.396C207.217 218.264 208.568 216.926 209.349 216.523C210.13 216.119 212.156 216.255 212.757 215.988C213.358 215.72 218.771 212.781 218.771 212.781C218.771 212.781 218.7 209.777 216.898 208.575C216.37 208.221 215.777 207.975 215.154 207.851C214.531 207.727 213.889 207.727 213.266 207.851Z" fill="white" stroke="#263238" stroke-width="0.108349" stroke-linecap="round" stroke-linejoin="round"/>
<path d="M216.89 208.584C216.364 208.23 215.773 207.983 215.151 207.857C214.53 207.732 213.889 207.73 213.267 207.852L211.613 209.927C212.738 210.016 213.793 210.509 214.582 211.315C215.371 212.122 215.842 213.186 215.907 214.313L218.745 212.778C218.745 212.778 218.693 209.786 216.89 208.584Z" fill="#147AA6" stroke="#263238" stroke-width="0.108349" stroke-linecap="round" stroke-linejoin="round"/>
<path d="M210.68 211.124C210.68 211.124 212.684 210.989 213.285 212.44" stroke="#263238" stroke-width="0.108349" stroke-linecap="round" stroke-linejoin="round"/>
<path d="M200.658 218.268L203.128 212.926" stroke="#263238" stroke-width="0.108349" stroke-linecap="round" stroke-linejoin="round"/>
<path d="M202.596 218.802L204.868 213.258" stroke="#263238" stroke-width="0.108349" stroke-linecap="round" stroke-linejoin="round"/>
<path d="M201.125 213.999L201.796 212.727" stroke="#263238" stroke-width="0.108349" stroke-linecap="round" stroke-linejoin="round"/>
<path d="M222.42 214.539L222.859 209.117C222.859 209.117 222.591 206.512 222.591 204.174C222.591 201.836 225.394 186.875 225.394 186.875" stroke="#263238" stroke-width="0.108349" stroke-linecap="round" stroke-linejoin="round"/>
<path d="M229.447 204.711C229.447 204.711 229.381 208.452 229.179 210.457C228.965 212.021 228.608 213.563 228.113 215.062" stroke="#263238" stroke-width="0.108349" stroke-linecap="round" stroke-linejoin="round"/>
<path d="M128.533 213.399L105.474 212.754L92.623 225.952L118.541 226.724L128.533 213.399Z" fill="#C7C7C7" stroke="#263238" stroke-width="0.108349" stroke-linecap="round" stroke-linejoin="round"/>
<path d="M105.756 214.863L111.708 215.048L105.848 222.399L99.2422 222.026L105.756 214.863Z" fill="#C7C7C7" stroke="#263238" stroke-width="0.108349" stroke-linecap="round" stroke-linejoin="round"/>
<path d="M123.629 215.126L114.128 214.863L107.334 224.258L116.365 224.82L123.629 215.126Z" fill="#263238" stroke="#263238" stroke-width="0.108349" stroke-linecap="round" stroke-linejoin="round"/>
<path d="M118.541 226.726L124.436 202.883L134.042 193.422L128.533 213.401L118.541 226.726Z" fill="#878787" stroke="#263238" stroke-width="0.108349" stroke-linecap="round" stroke-linejoin="round"/>
<path d="M113.2 201.376C113.2 201.376 115.248 203.13 114.924 203.657C114.599 204.183 114.178 203.937 113.573 203.749C112.967 203.56 110.73 202.073 110.73 202.073C110.73 202.073 112.687 201.003 113.2 201.376Z" stroke="#263238" stroke-width="0.108349" stroke-linecap="round" stroke-linejoin="round"/>
<path d="M110.729 202.07C110.729 202.07 114.268 204.724 113.896 205.097C113.523 205.47 113.15 205.285 112.08 205.005C111.01 204.724 109.334 203.25 109.334 203.25L110.729 202.07Z" fill="white" stroke="#263238" stroke-width="0.108349" stroke-linecap="round" stroke-linejoin="round"/>
<path d="M109.384 203.859C109.384 203.859 111.384 205.583 111.336 205.772C111.288 205.96 111.06 206.329 110.314 206.188C109.568 206.048 108.033 204.873 108.033 204.873L109.384 203.859Z" fill="white" stroke="#263238" stroke-width="0.108349" stroke-linecap="round" stroke-linejoin="round"/>
<path d="M100.748 204.907C100.748 204.907 106.59 199.42 106.775 199.328C108.573 198.968 110.393 198.718 112.222 198.582C113.341 198.582 116.227 200.863 115.854 201.095C115.481 201.328 113.389 200.771 113.389 200.771H112.178C112.178 200.771 109.569 203.749 107.196 205.157C105.295 206.192 103.316 207.079 101.279 207.811L100.748 204.907Z" fill="white" stroke="#263238" stroke-width="0.108349" stroke-linecap="round" stroke-linejoin="round"/>
<path d="M105.997 201.523C105.875 201.529 105.755 201.487 105.664 201.405C105.573 201.323 105.519 201.208 105.512 201.086C105.506 200.964 105.548 200.844 105.63 200.753C105.712 200.663 105.827 200.608 105.949 200.601L118.581 199.435C118.642 199.429 118.703 199.447 118.751 199.485C118.798 199.524 118.829 199.58 118.835 199.641C118.839 199.671 118.837 199.701 118.828 199.73C118.82 199.759 118.806 199.787 118.788 199.81C118.769 199.834 118.746 199.854 118.719 199.868C118.693 199.883 118.664 199.892 118.634 199.895L106.05 201.523H105.997Z" fill="#263238"/>
<path d="M105.938 202.447C105.938 202.447 110.499 200.443 111.201 200.21C111.903 199.978 116.026 200.864 115.855 201.088C115.684 201.311 115.811 201.693 114.925 201.925C114.039 202.158 111.991 202.018 111.991 202.018C111.991 202.018 109.429 204.395 108.078 205.465C106.727 206.535 105.657 207.219 104.306 207.373C103.471 207.457 102.631 207.474 101.793 207.421" fill="white"/>
<path d="M105.938 202.447C105.938 202.447 110.499 200.443 111.201 200.21C111.903 199.978 116.026 200.864 115.855 201.088C115.684 201.311 115.811 201.693 114.925 201.925C114.039 202.158 111.991 202.018 111.991 202.018C111.991 202.018 109.429 204.395 108.078 205.465C106.727 206.535 105.657 207.219 104.306 207.373C103.471 207.457 102.631 207.474 101.793 207.421" stroke="#263238" stroke-width="0.108349" stroke-linecap="round" stroke-linejoin="round"/>
<path d="M97.3457 205.45L100.745 204.906L101.429 209.393L97.8896 210.073L97.3457 205.45Z" fill="white" stroke="#263238" stroke-width="0.108349" stroke-linecap="round" stroke-linejoin="round"/>
<path d="M59.2495 182.828C59.2495 182.828 64.434 183.824 66.6139 185.319C68.7938 186.815 73.7107 197.531 74.509 199.298C75.3073 201.066 77.1056 205.04 77.1056 205.04C77.1056 205.04 78.6013 204.224 79.2987 204.904C79.7063 205.315 79.9891 205.834 80.1145 206.399C80.1145 206.399 96.2556 204.206 97.3433 205.448C98.4311 206.689 98.1592 208.711 97.8872 210.071C97.6153 211.43 97.7513 211.43 96.1328 212.11C94.5143 212.79 78.4653 217.242 73.8423 217.922C69.2193 218.602 69.4824 214.413 69.4824 214.413C69.4824 214.413 70.7149 204.088 65.2498 197.281C59.7846 190.473 58.2846 187.701 57.5565 185.491C56.8284 183.28 59.2495 182.828 59.2495 182.828Z" fill="white" stroke="#263238" stroke-width="0.108349" stroke-linecap="round" stroke-linejoin="round"/>
<path d="M80.1165 206.402C80.1165 206.402 76.976 211.174 75.9277 212.337" stroke="#263238" stroke-width="0.108349" stroke-linecap="round" stroke-linejoin="round"/>
<path d="M76.9748 205.82L74.7598 207.798" stroke="#263238" stroke-width="0.108349" stroke-linecap="round" stroke-linejoin="round"/>
<path d="M35.6002 196.684L23.8058 199.842C22.7407 200.125 21.7856 200.723 21.0645 201.557C20.4477 202.267 20.0224 203.124 19.829 204.045C19.6356 204.966 19.6804 205.921 19.9592 206.82L30.3237 240.339L44.6182 232.883L35.6002 196.684Z" fill="#263238" stroke="#263238" stroke-width="0.108349" stroke-linecap="round" stroke-linejoin="round"/>
<path d="M64.2148 187.311C64.2148 187.311 64.9385 188.767 69.0396 192.881C72.8556 196.697 74.303 201.311 73.4258 206.693C72.7284 210.965 72.7942 215.466 71.8994 219.698L44.6174 232.857L35.0293 190.561C35.0293 190.561 43.1437 185.596 48.3501 183.898C53.5564 182.201 57.561 182.447 59.2497 182.811C60.9384 183.175 62.1533 183.534 62.1533 183.534" fill="white"/>
<path d="M64.2148 187.311C64.2148 187.311 64.9385 188.767 69.0396 192.881C72.8556 196.697 74.303 201.311 73.4258 206.693C72.7284 210.965 72.7942 215.466 71.8994 219.698L44.6175 232.857L35.0293 190.561C35.0293 190.561 43.1437 185.596 48.3501 183.898C53.5564 182.201 57.561 182.447 59.2497 182.811C60.9384 183.175 62.1533 183.534 62.1533 183.534" stroke="#263238" stroke-width="0.108349" stroke-linecap="round" stroke-linejoin="round"/>
<path d="M62.2598 195.387C62.2598 195.387 68.1109 201.089 68.5188 204.365C68.9267 207.642 68.3828 215.769 68.3828 215.769" stroke="#263238" stroke-width="0.108349" stroke-linecap="round" stroke-linejoin="round"/>
<path d="M60.8252 193.733L61.549 186.224L57.5575 185.496C57.185 186.107 56.949 186.792 56.8658 187.503C56.7825 188.214 56.8539 188.934 57.0751 189.615C57.7944 192.023 60.8252 193.733 60.8252 193.733Z" fill="white" stroke="#263238" stroke-width="0.108349" stroke-linecap="round" stroke-linejoin="round"/>
<path d="M61.5491 186.223L64.944 191.188L61.1895 190.701L61.5491 186.223Z" fill="white" stroke="#263238" stroke-width="0.108349" stroke-linecap="round" stroke-linejoin="round"/>
<path d="M64.0918 156.053C64.0918 156.053 65.1839 158.246 65.3023 159.926C65.4208 161.606 64.8199 162.47 65.7892 163.562C66.7586 164.655 70.2675 164.409 69.5438 165.984C69.0636 166.981 68.4067 167.883 67.6051 168.646C67.6051 168.646 66.877 172.523 66.5129 175.067C66.1489 177.611 66.3945 177.852 65.0611 178.094C63.7277 178.335 61.4294 177.971 61.4294 177.971C60.2249 179.864 59.3638 181.955 58.8854 184.147C58.44 186.137 58.3982 188.197 58.7626 190.204L52.1044 186.572C52.1044 186.572 49.5604 187.419 48.227 182.212C46.8936 177.006 50.771 161.624 53.1921 158.474C55.6133 155.325 64.0918 156.053 64.0918 156.053Z" fill="white" stroke="#263238" stroke-width="0.108349" stroke-linecap="round" stroke-linejoin="round"/>
<path d="M53.9204 162.968C53.9204 162.968 54.7669 166.6 54.2844 167.324C53.802 168.048 51.8633 165.508 51.8633 165.508C51.8633 165.508 53.0739 161.394 53.9204 162.968Z" fill="#263238" stroke="#263238" stroke-width="0.108349" stroke-linecap="round" stroke-linejoin="round"/>
<path d="M52.1055 186.586L58.04 187.797L60.8252 193.727L57.7944 192.034L56.3426 197.24L47.0176 187.068L52.1055 186.586Z" fill="white" stroke="#263238" stroke-width="0.108349" stroke-linecap="round" stroke-linejoin="round"/>
<path d="M57.793 192.034L58.0386 187.797L60.8238 193.727L57.793 192.034Z" fill="white" stroke="#263238" stroke-width="0.108349" stroke-linecap="round" stroke-linejoin="round"/>
<path d="M50.4386 172.757C51.3158 174.398 53.1624 173.301 53.1624 173.301L58.0398 176.292L54.1625 174.836L48.7148 179.078C48.7148 179.078 48.807 169.625 50.4386 172.757Z" fill="#263238" stroke="#263238" stroke-width="0.108349" stroke-linecap="round" stroke-linejoin="round"/>
<path d="M66.1549 171.08C66.1549 171.08 63.6109 171.808 62.8828 170.598" stroke="#263238" stroke-width="0.108349" stroke-linecap="round" stroke-linejoin="round"/>
<path d="M64.1895 163.337C64.4132 164.07 64.3343 164.745 64.0141 164.846C63.6939 164.947 63.2553 164.408 63.0316 163.688C62.8079 162.969 62.8868 162.276 63.207 162.18C63.5272 162.083 63.9658 162.601 64.1895 163.337Z" fill="#263238"/>
<path d="M61.6719 161.273C61.6719 161.273 62.7596 159.576 64.3343 160.545" stroke="#263238" stroke-width="0.108349" stroke-linecap="round" stroke-linejoin="round"/>
<path d="M65.6657 152.676C65.6657 152.676 65.7885 153.645 64.091 156.066C62.3936 158.487 55.7354 161.514 53.9195 162.97C52.1037 164.426 49.8009 176.773 50.165 180.045C50.529 183.318 50.8931 184.524 52.709 184.524C53.2846 184.495 53.8488 184.352 54.3685 184.103C54.8881 183.853 55.3529 183.503 55.7354 183.072C55.7354 183.072 55.1301 188.52 52.3449 189.612C49.5597 190.704 46.0464 188.52 43.0199 188.765C39.9935 189.011 37.0854 191.669 35.6336 192.761C34.1818 193.853 33.5721 194.818 30.6685 193.121C27.7649 191.423 28.971 188.884 28.971 188.884C28.971 188.884 31.515 190.199 32.9668 187.068C34.4187 183.936 35.5108 186.221 34.1774 178.734C32.844 171.247 32.4844 166.865 36.967 158.632C41.4497 150.399 46.8973 149.548 46.8973 149.548C46.8973 149.548 53.3143 148.68 65.6657 152.676Z" fill="#263238" stroke="#263238" stroke-width="0.108349" stroke-linecap="round" stroke-linejoin="round"/>
<path d="M81.0506 222.185C81.0506 222.185 92.3099 217.457 93.1608 217.457C94.0117 217.457 101.516 221.089 101.516 221.089L101.999 221.94C101.999 221.94 102.486 222.181 102.122 222.909C101.758 223.637 99.3365 223.514 99.3365 223.514C99.3365 223.514 101.275 223.874 100.424 224.361C99.5734 224.848 93.1608 224.361 93.1608 224.361C91.4152 225.317 89.5382 226.01 87.5904 226.418C84.8052 226.905 80.4453 226.177 80.4453 226.177L81.0506 222.185Z" fill="white" stroke="#263238" stroke-width="0.108349" stroke-linecap="round" stroke-linejoin="round"/>
<path d="M101.998 221.947L94.5762 218.719" stroke="#263238" stroke-width="0.108349" stroke-linecap="round" stroke-linejoin="round"/>
<path d="M102.119 222.917L94.2852 220.25" stroke="#263238" stroke-width="0.108349" stroke-linecap="round" stroke-linejoin="round"/>
<path d="M99.3371 223.522C99.3371 223.522 96.2668 222.736 95.7361 222.609C95.19 222.504 94.6317 222.477 94.0781 222.53" stroke="#263238" stroke-width="0.108349" stroke-linecap="round" stroke-linejoin="round"/>
<path d="M76.9307 221.824L81.0493 222.188L80.6852 227.031L76.6895 227.276L76.9307 221.824Z" fill="white" stroke="#263238" stroke-width="0.108349" stroke-linecap="round" stroke-linejoin="round"/>
<path d="M51.1359 190.705C51.1359 190.705 46.2892 185.739 43.3855 185.498C40.4819 185.257 34.0605 186.95 34.0605 194.582C34.0605 202.214 37.8151 214.443 38.2976 222.316C38.7801 230.189 42.2934 234.667 43.3855 234.544C44.4777 234.422 57.9169 233.689 65.8909 231.272C73.865 228.855 76.0668 228.728 76.6721 227.276C77.2774 225.825 77.5187 223.158 76.9134 221.824C76.3081 220.491 53.1754 220.855 52.693 220.855C52.2105 220.855 48.9384 198.332 48.9384 198.332" fill="white"/>
<path d="M51.1359 190.705C51.1359 190.705 46.2892 185.739 43.3855 185.498C40.4819 185.257 34.0605 186.95 34.0605 194.582C34.0605 202.214 37.8151 214.443 38.2976 222.316C38.7801 230.189 42.2934 234.667 43.3855 234.544C44.4777 234.422 57.9169 233.689 65.8909 231.272C73.865 228.855 76.0668 228.728 76.6721 227.276C77.2774 225.825 77.5186 223.158 76.9134 221.824C76.3081 220.491 53.1754 220.855 52.693 220.855C52.2105 220.855 48.9384 198.332 48.9384 198.332" stroke="#263238" stroke-width="0.108349" stroke-linecap="round" stroke-linejoin="round"/>
<path d="M51.4984 220.969C51.4984 220.969 46.2876 222.543 43.748 225.693" stroke="#263238" stroke-width="0.108349" stroke-linecap="round" stroke-linejoin="round"/>
<path d="M50.8946 219.887C50.8946 219.887 45.6838 220.738 43.5039 222.312" stroke="#263238" stroke-width="0.108349" stroke-linecap="round" stroke-linejoin="round"/>
<path d="M232.462 227.131C232.462 227.131 235.726 226.359 235.717 228.683C235.708 231.008 234.888 234.267 233.673 234.89C232.458 235.513 230.388 234.267 230.388 234.267L230.361 232.872C230.361 232.872 233.059 234.114 233.59 232.254C234.12 230.394 234.318 228.683 231.585 229.148" fill="#147AA6"/>
<path d="M232.462 227.131C232.462 227.131 235.726 226.359 235.717 228.683C235.708 231.008 234.888 234.267 233.673 234.89C232.458 235.513 230.388 234.267 230.388 234.267L230.361 232.872C230.361 232.872 233.059 234.114 233.59 232.254C234.12 230.394 234.318 228.683 231.585 229.148" stroke="#263238" stroke-width="0.108349" stroke-linecap="round" stroke-linejoin="round"/>
<path d="M232.908 225.039L231.86 237.448C231.86 238.421 229.412 239.202 226.39 239.202C223.368 239.202 220.925 238.417 220.925 237.448L219.877 225.039H232.908Z" fill="#147AA6" stroke="#263238" stroke-width="0.108349" stroke-linecap="round" stroke-linejoin="round"/>
<path d="M226.391 227.13C229.991 227.13 232.909 226.193 232.909 225.038C232.909 223.882 229.991 222.945 226.391 222.945C222.791 222.945 219.873 223.882 219.873 225.038C219.873 226.193 222.791 227.13 226.391 227.13Z" fill="white" stroke="#263238" stroke-width="0.108349" stroke-linecap="round" stroke-linejoin="round"/>
<path d="M224.197 226.433C224.925 226.525 225.657 226.57 226.39 226.569C228.544 226.569 230.408 226.205 231.347 225.691" fill="white"/>
<path d="M224.197 226.433C224.925 226.525 225.657 226.57 226.39 226.569C228.544 226.569 230.408 226.205 231.347 225.691" stroke="#263238" stroke-width="0.108349" stroke-linecap="round" stroke-linejoin="round"/>
<path d="M221.236 225.551C221.641 225.81 222.086 226.001 222.552 226.117L221.236 225.551Z" fill="white"/>
<path d="M221.236 225.551C221.641 225.81 222.086 226.001 222.552 226.117" stroke="#263238" stroke-width="0.108349" stroke-linecap="round" stroke-linejoin="round"/>
<path d="M77.7356 229.78C77.7356 229.78 74.5731 229 74.3889 231.355C74.2047 233.71 74.7442 237 75.8934 237.627C77.0426 238.254 79.1962 236.996 79.1962 236.996L79.3365 235.583C79.3365 235.583 76.5688 236.842 76.1916 234.96C75.8144 233.079 75.753 231.351 78.433 231.82" fill="#147AA6"/>
<path d="M77.7356 229.78C77.7356 229.78 74.5731 229 74.3889 231.355C74.2047 233.71 74.7442 237 75.8934 237.627C77.0426 238.254 79.1962 236.996 79.1962 236.996L79.3365 235.583C79.3365 235.583 76.5688 236.842 76.1916 234.96C75.8144 233.079 75.753 231.351 78.433 231.82" stroke="#263238" stroke-width="0.108349" stroke-linecap="round" stroke-linejoin="round"/>
<path d="M76.9512 227.734L77.9995 240.143C77.9995 241.117 80.4469 241.897 83.4646 241.897C86.4823 241.897 88.9342 241.112 88.9342 240.143L89.9825 227.734H76.9512Z" fill="#147AA6" stroke="#263238" stroke-width="0.108349" stroke-linecap="round" stroke-linejoin="round"/>
<path d="M89.9825 227.733C89.9825 228.891 87.0657 229.826 83.4646 229.826C79.8636 229.826 76.9512 228.891 76.9512 227.733C76.9512 226.575 79.868 225.637 83.4646 225.637C87.0613 225.637 89.9825 226.575 89.9825 227.733Z" fill="white" stroke="#263238" stroke-width="0.108349" stroke-linecap="round" stroke-linejoin="round"/>
<path d="M85.6568 229.128C84.9294 229.22 84.1969 229.266 83.4637 229.264C81.3145 229.264 79.446 228.9 78.5117 228.387" fill="white"/>
<path d="M85.6568 229.128C84.9294 229.22 84.1969 229.266 83.4637 229.264C81.3145 229.264 79.446 228.9 78.5117 228.387" stroke="#263238" stroke-width="0.108349" stroke-linecap="round" stroke-linejoin="round"/>
<path d="M88.6205 228.242C88.2151 228.5 87.7708 228.691 87.3047 228.808L88.6205 228.242Z" fill="white"/>
<path d="M88.6205 228.242C88.2151 228.5 87.7708 228.691 87.3047 228.808" stroke="#263238" stroke-width="0.108349" stroke-linecap="round" stroke-linejoin="round"/>
</svg>
